<?xml version="1.0" encoding="UTF-8" standalone="no"?>
<!-- Created with Inkscape (http://www.inkscape.org/) -->

<svg
   xmlns:dc="http://purl.org/dc/elements/1.1/"
   xmlns:cc="http://creativecommons.org/ns#"
   xmlns:rdf="http://www.w3.org/1999/02/22-rdf-syntax-ns#"
   xmlns:svg="http://www.w3.org/2000/svg"
   xmlns="http://www.w3.org/2000/svg"
   xmlns:xlink="http://www.w3.org/1999/xlink"
   xmlns:sodipodi="http://sodipodi.sourceforge.net/DTD/sodipodi-0.dtd"
   xmlns:inkscape="http://www.inkscape.org/namespaces/inkscape"
   width="27.238731mm"
   height="27.238731mm"
   viewBox="0 0 96.51519 96.51519"
   id="svg2"
   version="1.1"
   inkscape:version="0.91 r13725"
   sodipodi:docname="CHAMELEON.svg">
  <defs
     id="defs4">
    <linearGradient
       inkscape:collect="always"
       id="linearGradient4226">
      <stop
         style="stop-color:#397fc5;stop-opacity:1;"
         offset="0"
         id="stop4228" />
      <stop
         style="stop-color:#397fc5;stop-opacity:0;"
         offset="1"
         id="stop4230" />
    </linearGradient>
    <linearGradient
       inkscape:collect="always"
       xlink:href="#linearGradient4226"
       id="linearGradient4232"
       x1="244.85715"
       y1="332.36218"
       x2="155.14287"
       y2="243.07648"
       gradientUnits="userSpaceOnUse" />
  </defs>
  <sodipodi:namedview
     id="base"
     pagecolor="#ffffff"
     bordercolor="#666666"
     borderopacity="1.0"
     inkscape:pageopacity="0"
     inkscape:pageshadow="2"
     inkscape:zoom="2.8"
     inkscape:cx="-76.202169"
     inkscape:cy="-32.059856"
     inkscape:document-units="px"
     inkscape:current-layer="layer1"
     showgrid="false"
     inkscape:window-width="1920"
     inkscape:window-height="1137"
     inkscape:window-x="-4"
     inkscape:window-y="-4"
     inkscape:window-maximized="1"
     fit-margin-top="1"
     fit-margin-left="1"
     fit-margin-right="1"
     fit-margin-bottom="1" />
  <metadata
     id="metadata7">
    <rdf:RDF>
      <cc:Work
         rdf:about="">
        <dc:format>image/svg+xml</dc:format>
        <dc:type
           rdf:resource="http://purl.org/dc/dcmitype/StillImage" />
        <dc:title></dc:title>
      </cc:Work>
    </rdf:RDF>
  </metadata>
  <g
     inkscape:label="Layer 1"
     inkscape:groupmode="layer"
     id="layer1"
     transform="translate(-151.02813,-239.81888)">
    <circle
       style="fill:url(#linearGradient4232);fill-opacity:1;stroke:#000000;stroke-width:3;stroke-miterlimit:4;stroke-dasharray:none;stroke-opacity:1"
       id="path4138"
       cx="199.28572"
       cy="288.07648"
       r="43.214287" />
    <path
       style="fill:#000000;fill-opacity:1"
       inkscape:connector-curvature="0"
       d="m 211.54236,265.58383 c -0.51704,-0.15181 -1.04899,0.10546 -1.61473,0.1292 -1.92629,0.0809 -2.84694,2.54467 -4.78899,1.29525 -2.46273,-1.55209 -3.84291,-0.21534 -5.24605,-1.52678 -1.29474,-0.73635 2.38609,-1.68635 1.12966,-2.8659 -0.56304,-0.89614 -2.09514,-1.07912 -2.80253,0.71576 0.18723,-1.78232 -2.65191,-3.41097 -2.49165,-1.10743 0.75435,1.54089 0.40963,1.09035 -1.28524,0.83027 -2.55619,0.66884 0.0429,2.31207 1.15786,2.39975 -1.11246,-0.20459 -3.23401,2.10085 -0.18741,2.29905 1.5557,-1.91194 2.89208,1.96218 1.04468,2.1281 -2.112,0.2418 -3.60803,1.90738 -4.99525,3.32573 -2.11414,2.16133 -2.66839,3.99742 -2.74576,6.28612 -0.0728,2.15398 -1.4206,0.89029 -2.71949,0.84272 -1.61937,-0.1957 -2.82107,2.9884 -3.23821,4.46475 -1.90882,-0.9624 -2.35959,-1.46604 -2.97317,-0.28209 -0.99095,1.91217 2.90422,1.78019 1.44446,2.63398 -2.78191,0.20541 -2.1463,2.91941 1.26974,1.85889 -2.10668,2.51925 0.71972,3.40097 1.31222,1.91141 0.47829,-1.35913 0.76755,-0.0601 1.15481,0.61728 2.13092,2.32485 3.11387,-1.048 1.53268,-2.83314 -0.89684,-1.93028 1.12109,-1.89181 2.27576,-0.56475 1.44708,1.66306 1.23846,3.38438 1.78415,5.38305 1.56601,6.68267 9.46914,6.65603 9.52546,10.40038 0.096,6.40029 -9.77587,8.40433 -11.99988,8.26999 -2.07691,-0.12548 -5.80128,-2.72521 -7.38061,-4.5774 -1.04347,-1.22393 -0.41067,-3.92816 -1.72254,-3.8452 -0.66431,2.31918 0.28772,4.80802 1.62766,6.74889 5.77351,8.36323 19.12781,2.98478 20.96135,1.07482 1.34407,-1.39998 3.74078,-3.36645 4.11159,-7.31174 0.29205,-3.10584 -0.30189,-4.98156 -1.29048,-6.59095 -2.80314,-4.56408 -9.468,-3.40991 -7.82435,-8.09113 1.44244,-0.64722 2.72482,-1.58314 3.92207,-2.60727 2.25719,-2.39133 2.41957,1.30876 2.30103,2.95735 -2.16411,1.25056 -1.32896,4.16563 0.61951,2.44089 1.70789,-1.89958 0.7287,1.05963 2.44169,1.25741 3.81209,0.31802 -0.51262,-3.76604 1.8694,-2.57286 1.63881,1.90703 4.88527,-0.49424 1.12836,-1.66264 -2.82198,-1.01504 1.46208,-1.32923 0.66728,-2.81829 -0.51954,-1.14675 -2.32162,-1.14172 -3.76296,0.27948 -1.20821,-1.40196 -2.02649,-4.23528 -3.97535,-4.6284 -2.68555,0.10192 -0.81265,-2.62146 0.31654,-3.38479 -0.008,0.69612 0.37524,1.96648 1.0604,2.73719 0.62519,0.54896 1.73658,0.34913 2.52008,0.682 1.79093,-0.15719 1.25719,3.16137 4.31367,2.19052 -1.80763,-3.34133 2.33106,2.06851 2.04016,-1.67348 -0.93957,-1.01896 -0.96888,-0.57161 0.0274,-1.02341 3.60898,-1.34148 -1.09134,-2.27694 -1.64963,-1.54816 1.62934,-2.43511 -1.49846,-3.02414 -2.6065,-0.75964 -0.63333,-0.0808 -2.14207,-0.45626 -1.64095,-1.3749 0.002,-0.003 0.002,-0.005 0.003,-0.007 0.008,-0.0149 0.009,-0.0271 0.018,-0.0423 0.8437,-2.18226 3.76604,-0.4778 5.50102,-0.89169 1.04464,-0.2492 5.14481,-2.00979 6.42731,-2.73221 2.21487,-1.24783 2.18001,-3.93083 0.3661,-5.28182 -1.80421,-1.64243 -6.76145,-3.50486 -6.93384,-3.55548 z"
       id="path4282" />
  </g>
</svg>
